<svg id="Capa_1" data-name="Capa 1" xmlns="http://www.w3.org/2000/svg" viewBox="0 0 356.83 189.51"><defs><style>.cls-1,.cls-2{fill:#fff;}.cls-2{font-size:11.31px;font-family:Poppins-Regular, Poppins;}</style></defs><path class="cls-1" d="M86.44,119.2a25.23,25.23,0,0,1-8.81-1.56,14.31,14.31,0,0,1-6.51-4.49,3.84,3.84,0,0,1-.84-2.29,3.1,3.1,0,0,1,1.1-2.35,3.6,3.6,0,0,1,2.45-1,4.46,4.46,0,0,1,1.46.26,2.25,2.25,0,0,1,1.14.89A11.32,11.32,0,0,0,81,111.8,16.08,16.08,0,0,0,87,113a9.63,9.63,0,0,0,6-1.78,5.59,5.59,0,0,0,2.34-4.69,4.91,4.91,0,0,0-2.76-4.74,22.45,22.45,0,0,0-6.41-2,45.87,45.87,0,0,1-6.78-1.82,14.64,14.64,0,0,1-5.73-3.54,8.81,8.81,0,0,1-2.3-6.42,10.42,10.42,0,0,1,4.23-8.75q4.22-3.24,11.31-3.24A20.68,20.68,0,0,1,93.74,77,15.14,15.14,0,0,1,99,80a3.25,3.25,0,0,1,1.26,2.61,3.19,3.19,0,0,1-3.13,3.12,4,4,0,0,1-2.4-.83,12.64,12.64,0,0,0-8.24-2.71q-8.34,0-8.34,5.63a3.66,3.66,0,0,0,2.56,3.7,54.56,54.56,0,0,0,6.93,2,42.86,42.86,0,0,1,4.53,1.2,21.41,21.41,0,0,1,4.75,2.19,11.33,11.33,0,0,1,3.75,3.76,11,11,0,0,1,1.46,5.89,11.17,11.17,0,0,1-4.32,9.12Q93.43,119.21,86.44,119.2Z"/><path class="cls-1" d="M122.93,119.2a16.6,16.6,0,0,1-8.29-2.08,15,15,0,0,1-5.78-5.79,16.6,16.6,0,0,1-2.09-8.29,15.56,15.56,0,0,1,2.09-8,14.89,14.89,0,0,1,5.78-5.57,16.89,16.89,0,0,1,8.29-2,16.59,16.59,0,0,1,8.24,2,15.17,15.17,0,0,1,7.92,13.6,16.32,16.32,0,0,1-2.13,8.29,15.47,15.47,0,0,1-5.79,5.79A16.3,16.3,0,0,1,122.93,119.2Zm0-6.46a8.62,8.62,0,0,0,6.57-2.66,9.84,9.84,0,0,0,2.5-7,9,9,0,0,0-2.5-6.67,9.95,9.95,0,0,0-13.19,0,9.14,9.14,0,0,0-2.45,6.67,10,10,0,0,0,2.45,7A8.57,8.57,0,0,0,122.93,112.74Z"/><path class="cls-1" d="M171.52,119.2a4,4,0,0,1-2.45-.83A2.85,2.85,0,0,1,168,116V102.83c0-3.06-.67-5.31-2-6.77a7,7,0,0,0-5.37-2.19q-4.27,0-6.2,2.76a10.38,10.38,0,0,0-1.93,6.1V116a2.85,2.85,0,0,1-1.1,2.4,4,4,0,0,1-4.9,0,2.84,2.84,0,0,1-1.09-2.4V91.47a3.22,3.22,0,0,1,1.09-2.66,3.82,3.82,0,0,1,4.9,0,3.22,3.22,0,0,1,1.1,2.66A13.61,13.61,0,0,1,157,88.55a14,14,0,0,1,5.31-1.15,12,12,0,0,1,9.28,3.76q3.45,3.75,3.44,11V116a2.8,2.8,0,0,1-1.14,2.4A4.08,4.08,0,0,1,171.52,119.2Z"/><path class="cls-1" d="M186.63,81.67a4.78,4.78,0,0,1-3.38-1.31,4.14,4.14,0,0,1-1.41-3.18,4.05,4.05,0,0,1,1.41-3.07,4.77,4.77,0,0,1,3.38-1.3,4.51,4.51,0,0,1,3.24,1.3,4.13,4.13,0,0,1,1.35,3.07,4.22,4.22,0,0,1-1.35,3.18A4.52,4.52,0,0,1,186.63,81.67Zm-.1,37.53a4,4,0,0,1-2.45-.83A2.84,2.84,0,0,1,183,116V91a3.22,3.22,0,0,1,1.09-2.66,3.82,3.82,0,0,1,4.9,0A3.22,3.22,0,0,1,190.07,91v25a2.84,2.84,0,0,1-1.09,2.4A4,4,0,0,1,186.53,119.2Z"/><path class="cls-1" d="M205.61,102.73V116a2.85,2.85,0,0,1-1.1,2.4,4,4,0,0,1-4.9,0,2.84,2.84,0,0,1-1.09-2.4V91.47a3.22,3.22,0,0,1,1.09-2.66,3.82,3.82,0,0,1,4.9,0,3.22,3.22,0,0,1,1.1,2.66v.41a11.27,11.27,0,0,1,3.81-3.23,10.39,10.39,0,0,1,5-1.25,10.69,10.69,0,0,1,2.5.31A3.06,3.06,0,0,1,218.75,89a3.71,3.71,0,0,1,.62,2.08,3.78,3.78,0,0,1-.88,2.45,3.12,3.12,0,0,1-2.56,1.1,5.78,5.78,0,0,1-1.51-.21,7.58,7.58,0,0,0-1.93-.21,6.15,6.15,0,0,0-5,2.29A9.41,9.41,0,0,0,205.61,102.73Z"/><path class="cls-1" d="M220.94,91a3.21,3.21,0,0,1,1.14-2.61,3.86,3.86,0,0,1,2.5-.94,3.21,3.21,0,0,1,3.13,2.19l8.13,19.92a1.24,1.24,0,0,0,2.3.1l7-19.91a3.19,3.19,0,0,1,3.24-2.3,4.17,4.17,0,0,1,2.65.94,2.82,2.82,0,0,1,1.2,2.29,4.88,4.88,0,0,1-.31,1.46L236,131a3.18,3.18,0,0,1-3.23,2.3,4.11,4.11,0,0,1-2.56-.94A2.83,2.83,0,0,1,229,130a2.46,2.46,0,0,1,.32-1.45l5.1-10.43a3.42,3.42,0,0,1-3-2.09L221.14,92.2A5.52,5.52,0,0,1,220.94,91Z"/><path class="cls-1" d="M286.47,76.38c-.58,10.75-5.35,18.6-14.91,23.4a3.53,3.53,0,0,1-.67.28,1.35,1.35,0,0,1-1.62-.7,1.34,1.34,0,0,1,.46-1.71,6.49,6.49,0,0,1,.79-.4A22.92,22.92,0,0,0,265,54a22.47,22.47,0,0,0-12,1l-.3.11c-1,.34-1.69.07-2-.73a1.34,1.34,0,0,1,1.09-1.82,38.4,38.4,0,0,1,5.83-1.42A25.5,25.5,0,0,1,285.9,71.67C286.22,73.27,286.29,74.91,286.47,76.38Z"/><path class="cls-1" d="M281.59,76.51c-.35,8.13-3.9,14.3-11,18.34a2.69,2.69,0,0,1-.89.34,1.26,1.26,0,0,1-1.41-.82,1.24,1.24,0,0,1,.38-1.52,4.4,4.4,0,0,1,.89-.54,18.06,18.06,0,0,0-6-33.63,17.64,17.64,0,0,0-14.34,4c-.17.13-.32.28-.49.42a1.38,1.38,0,0,1-2,0,1.37,1.37,0,0,1,.22-2,20.16,20.16,0,0,1,9.55-4.88,20.76,20.76,0,0,1,24.81,17C281.45,74.32,281.49,75.43,281.59,76.51Z"/><path class="cls-1" d="M276.69,77.61A15.47,15.47,0,0,1,269.25,90a2.16,2.16,0,0,1-1.56.28,1.28,1.28,0,0,1-.39-2.21,4.7,4.7,0,0,1,.73-.5,13.22,13.22,0,0,0-7.76-24.25,12.88,12.88,0,0,0-10.18,5.47c-.16.21-.3.45-.47.65a1.32,1.32,0,0,1-1.8.33,1.29,1.29,0,0,1-.42-1.83,18.26,18.26,0,0,1,1.92-2.46,15.83,15.83,0,0,1,17.38-3.76C272.75,64.16,276.69,70,276.69,77.61Z"/><path class="cls-1" d="M271.86,76.56a11,11,0,0,1-1.65,5.79c-.54.88-1.3,1.13-2,.69s-.83-1.22-.31-2.1a8.33,8.33,0,0,0-6.35-12.73,8.06,8.06,0,0,0-8,4.11c-.12.2-.22.43-.35.63a1.35,1.35,0,0,1-1.75.54,1.37,1.37,0,0,1-.65-1.78,6,6,0,0,1,.37-.71,11.08,11.08,0,0,1,20.69,5.56Z"/><path class="cls-1" d="M291.18,74.54c0,1.1-.46,1.75-1.32,1.78s-1.35-.57-1.44-1.58c-.82-9.68-5.4-17-13.64-22.15-1.16-.72-1.51-1.44-1-2.23s1.26-.82,2.39-.12C285.25,55.82,290.16,64,291.18,74.54Z"/><path class="cls-1" d="M284.08,95.69a5.75,5.75,0,0,1-.62,1.12,30.18,30.18,0,0,1-10.78,7.78,1.37,1.37,0,0,1-1.88-.71,1.32,1.32,0,0,1,.77-1.78,28.46,28.46,0,0,0,9.95-7.18,1.19,1.19,0,0,1,1.52-.34A5.29,5.29,0,0,1,284.08,95.69Z"/><path class="cls-1" d="M267,76c0,1.2-.51,1.84-1.32,1.87a1.37,1.37,0,0,1-1.4-1.43,3.54,3.54,0,0,0-5.81-2.62,1.37,1.37,0,1,1-1.67-2.14A6.27,6.27,0,0,1,267,76Z"/><path class="cls-1" d="M295.53,70.18c-.06,1-.39,1.48-1.08,1.64a1.24,1.24,0,0,1-1.54-.83c-.36-1.28-.68-2.58-.92-3.89a1.21,1.21,0,0,1,1-1.39,1.17,1.17,0,0,1,1.54.67C294.94,67.72,295.25,69.1,295.53,70.18Z"/><text class="cls-2" transform="translate(70.28 133.15)">audiobranding consulting </text></svg>