<svg id="Capa_1" data-name="Capa 1" xmlns="http://www.w3.org/2000/svg" viewBox="0 0 356.83 189.51"><defs><style>.cls-1,.cls-2{fill:#202121;}.cls-2{font-size:11.31px;font-family:Poppins-Regular, Poppins;}</style></defs><path class="cls-1" d="M76.88,119.2a25.23,25.23,0,0,1-8.81-1.56,14.37,14.37,0,0,1-6.51-4.49,3.84,3.84,0,0,1-.84-2.29,3.1,3.1,0,0,1,1.1-2.35,3.6,3.6,0,0,1,2.45-1,4.46,4.46,0,0,1,1.46.26,2.25,2.25,0,0,1,1.14.89,11.39,11.39,0,0,0,4.54,3.13,16.09,16.09,0,0,0,6,1.15,9.6,9.6,0,0,0,6-1.78,5.6,5.6,0,0,0,2.35-4.69A4.91,4.91,0,0,0,83,101.74a22.45,22.45,0,0,0-6.41-2,46.2,46.2,0,0,1-6.78-1.82,14.64,14.64,0,0,1-5.73-3.54,8.8,8.8,0,0,1-2.29-6.42A10.42,10.42,0,0,1,66,79.17q4.22-3.24,11.31-3.24A20.68,20.68,0,0,1,84.18,77a15.28,15.28,0,0,1,5.22,3,3.27,3.27,0,0,1,1.25,2.61,3.19,3.19,0,0,1-3.13,3.12,4,4,0,0,1-2.4-.83,12.62,12.62,0,0,0-8.24-2.71q-8.34,0-8.34,5.63a3.66,3.66,0,0,0,2.56,3.7,54.56,54.56,0,0,0,6.93,2,43.64,43.64,0,0,1,4.54,1.2,21.55,21.55,0,0,1,4.74,2.19,11.33,11.33,0,0,1,3.75,3.76,10.88,10.88,0,0,1,1.46,5.89,11.17,11.17,0,0,1-4.32,9.12Q83.87,119.21,76.88,119.2Z"/><path class="cls-1" d="M113.37,119.2a16.56,16.56,0,0,1-8.28-2.08,14.92,14.92,0,0,1-5.79-5.79A16.6,16.6,0,0,1,97.21,103a15.56,15.56,0,0,1,2.09-8,14.85,14.85,0,0,1,5.79-5.57,16.85,16.85,0,0,1,8.28-2,16.59,16.59,0,0,1,8.24,2,15.17,15.17,0,0,1,7.92,13.6,16.32,16.32,0,0,1-2.13,8.29,15.47,15.47,0,0,1-5.79,5.79A16.3,16.3,0,0,1,113.37,119.2Zm0-6.46a8.6,8.6,0,0,0,6.57-2.66,9.85,9.85,0,0,0,2.51-7,9,9,0,0,0-2.51-6.67,9.95,9.95,0,0,0-13.19,0A9.14,9.14,0,0,0,104.3,103a10,10,0,0,0,2.45,7A8.58,8.58,0,0,0,113.37,112.74Z"/><path class="cls-1" d="M162,119.2a4,4,0,0,1-2.45-.83,2.85,2.85,0,0,1-1.1-2.4V102.83c0-3.06-.67-5.31-2-6.77A7,7,0,0,0,151,93.87q-4.27,0-6.2,2.76a10.38,10.38,0,0,0-1.93,6.1V116a2.85,2.85,0,0,1-1.1,2.4,4,4,0,0,1-4.9,0,2.84,2.84,0,0,1-1.09-2.4V91.47a3.22,3.22,0,0,1,1.09-2.66,3.82,3.82,0,0,1,4.9,0,3.22,3.22,0,0,1,1.1,2.66,13.61,13.61,0,0,1,4.59-2.92,14,14,0,0,1,5.31-1.15,11.93,11.93,0,0,1,9.28,3.76q3.45,3.75,3.44,11V116a2.8,2.8,0,0,1-1.14,2.4A4.08,4.08,0,0,1,162,119.2Z"/><path class="cls-1" d="M177.08,81.67a4.8,4.8,0,0,1-3.39-1.31,4.14,4.14,0,0,1-1.41-3.18,4.05,4.05,0,0,1,1.41-3.07,4.79,4.79,0,0,1,3.39-1.3,4.5,4.5,0,0,1,3.23,1.3,4.13,4.13,0,0,1,1.35,3.07,4.22,4.22,0,0,1-1.35,3.18A4.51,4.51,0,0,1,177.08,81.67ZM177,119.2a4,4,0,0,1-2.45-.83,2.84,2.84,0,0,1-1.09-2.4V91a3.22,3.22,0,0,1,1.09-2.66,3.82,3.82,0,0,1,4.9,0,3.22,3.22,0,0,1,1.1,2.66v25a2.85,2.85,0,0,1-1.1,2.4A4,4,0,0,1,177,119.2Z"/><path class="cls-1" d="M196.05,102.73V116a2.84,2.84,0,0,1-1.09,2.4,4,4,0,0,1-4.9,0A2.85,2.85,0,0,1,189,116V91.47a3.22,3.22,0,0,1,1.1-2.66,3.82,3.82,0,0,1,4.9,0,3.22,3.22,0,0,1,1.09,2.66v.41a11.27,11.27,0,0,1,3.81-3.23,10.39,10.39,0,0,1,4.95-1.25,10.69,10.69,0,0,1,2.5.31A3.06,3.06,0,0,1,209.19,89a3.71,3.71,0,0,1,.62,2.08,3.78,3.78,0,0,1-.88,2.45,3.11,3.11,0,0,1-2.56,1.1,5.84,5.84,0,0,1-1.51-.21,7.53,7.53,0,0,0-1.93-.21,6.17,6.17,0,0,0-5,2.29A9.41,9.41,0,0,0,196.05,102.73Z"/><path class="cls-1" d="M211.38,91a3.21,3.21,0,0,1,1.14-2.61A3.86,3.86,0,0,1,215,87.4a3.2,3.2,0,0,1,3.12,2.19l8.14,19.92a1.23,1.23,0,0,0,2.29.1l7-19.91a3.17,3.17,0,0,1,3.23-2.3,4.2,4.2,0,0,1,2.66.94,2.85,2.85,0,0,1,1.2,2.29,5,5,0,0,1-.32,1.46l-16,38.89a3.18,3.18,0,0,1-3.23,2.3,4.11,4.11,0,0,1-2.56-.94,2.83,2.83,0,0,1-1.2-2.3,2.46,2.46,0,0,1,.32-1.45l5.11-10.43a3.42,3.42,0,0,1-3-2.09L211.59,92.2A5.13,5.13,0,0,1,211.38,91Z"/><path class="cls-1" d="M276.91,76.38c-.58,10.75-5.35,18.6-14.91,23.4a3.53,3.53,0,0,1-.67.28,1.35,1.35,0,0,1-1.62-.7,1.34,1.34,0,0,1,.46-1.71,6.49,6.49,0,0,1,.79-.4A22.92,22.92,0,0,0,255.41,54a22.42,22.42,0,0,0-11.95,1l-.31.11c-1,.34-1.69.07-2-.73a1.34,1.34,0,0,1,1.09-1.82,38.69,38.69,0,0,1,5.83-1.42,25.5,25.5,0,0,1,28.26,20.56C276.66,73.27,276.73,74.91,276.91,76.38Z"/><path class="cls-1" d="M272,76.51c-.34,8.13-3.89,14.3-11,18.34a2.61,2.61,0,0,1-.89.34,1.26,1.26,0,0,1-1.41-.82,1.24,1.24,0,0,1,.38-1.52,4.69,4.69,0,0,1,.89-.54,18.06,18.06,0,0,0-6-33.63,17.64,17.64,0,0,0-14.34,4c-.17.13-.32.28-.49.42a1.36,1.36,0,1,1-1.79-2,20.16,20.16,0,0,1,9.55-4.88,20.76,20.76,0,0,1,24.81,17C271.9,74.32,271.93,75.43,272,76.51Z"/><path class="cls-1" d="M267.13,77.61A15.47,15.47,0,0,1,259.69,90a2.14,2.14,0,0,1-1.55.28,1.29,1.29,0,0,1-.4-2.21,4.7,4.7,0,0,1,.73-.5,13.22,13.22,0,0,0-7.76-24.25,12.88,12.88,0,0,0-10.18,5.47c-.16.21-.3.45-.47.65a1.31,1.31,0,0,1-1.79.33,1.29,1.29,0,0,1-.43-1.83,19.11,19.11,0,0,1,1.92-2.46,15.83,15.83,0,0,1,17.38-3.76C263.19,64.16,267.13,70,267.13,77.61Z"/><path class="cls-1" d="M262.3,76.56a11,11,0,0,1-1.65,5.79c-.54.88-1.3,1.13-2,.69s-.83-1.22-.32-2.1A8.32,8.32,0,0,0,252,68.21a8,8,0,0,0-8,4.11c-.13.2-.23.43-.36.63a1.35,1.35,0,0,1-1.75.54,1.37,1.37,0,0,1-.65-1.78,6,6,0,0,1,.37-.71,11.08,11.08,0,0,1,20.69,5.56Z"/><path class="cls-1" d="M281.62,74.54c0,1.1-.46,1.75-1.32,1.78s-1.35-.57-1.44-1.58c-.81-9.68-5.4-17-13.64-22.15-1.15-.72-1.5-1.44-1-2.23s1.26-.82,2.4-.12C275.69,55.82,280.6,64,281.62,74.54Z"/><path class="cls-1" d="M274.52,95.69a5.75,5.75,0,0,1-.62,1.12,30.18,30.18,0,0,1-10.78,7.78,1.37,1.37,0,0,1-1.88-.71,1.33,1.33,0,0,1,.77-1.78A28.46,28.46,0,0,0,272,94.92a1.19,1.19,0,0,1,1.52-.34A5,5,0,0,1,274.52,95.69Z"/><path class="cls-1" d="M257.46,76c0,1.2-.51,1.84-1.31,1.87a1.38,1.38,0,0,1-1.41-1.43,3.54,3.54,0,0,0-5.81-2.62,1.37,1.37,0,1,1-1.67-2.14A6.27,6.27,0,0,1,257.46,76Z"/><path class="cls-1" d="M286,70.18c-.06,1-.39,1.48-1.08,1.64a1.24,1.24,0,0,1-1.54-.83,39.9,39.9,0,0,1-.91-3.89,1.2,1.2,0,0,1,1-1.39,1.16,1.16,0,0,1,1.54.67C285.39,67.72,285.69,69.1,286,70.18Z"/><text class="cls-2" transform="translate(60.2 133.15)">audiobranding consulting </text></svg>