<svg id="Capa_1" data-name="Capa 1" xmlns="http://www.w3.org/2000/svg" viewBox="0 0 356.83 189.51"><defs><style>.cls-1,.cls-2{fill:#2121d8;}.cls-2{font-size:11.31px;font-family:Poppins-Regular, Poppins;}</style></defs><path class="cls-1" d="M76.36,119.2a25.27,25.27,0,0,1-8.81-1.56A14.37,14.37,0,0,1,61,113.15a3.84,3.84,0,0,1-.84-2.29,3.1,3.1,0,0,1,1.1-2.35,3.6,3.6,0,0,1,2.45-1,4.46,4.46,0,0,1,1.46.26,2.32,2.32,0,0,1,1.15.89,11.29,11.29,0,0,0,4.53,3.13,16.09,16.09,0,0,0,6,1.15,9.6,9.6,0,0,0,6-1.78,5.6,5.6,0,0,0,2.35-4.69,4.9,4.9,0,0,0-2.77-4.74,22.45,22.45,0,0,0-6.41-2,46.2,46.2,0,0,1-6.78-1.82,14.64,14.64,0,0,1-5.73-3.54,8.8,8.8,0,0,1-2.29-6.42,10.42,10.42,0,0,1,4.22-8.75q4.22-3.24,11.31-3.24A20.68,20.68,0,0,1,83.66,77a15.28,15.28,0,0,1,5.22,3,3.27,3.27,0,0,1,1.25,2.61A3.19,3.19,0,0,1,87,85.73a4,4,0,0,1-2.4-.83,12.62,12.62,0,0,0-8.24-2.71Q68,82.19,68,87.82a3.66,3.66,0,0,0,2.56,3.7,54.56,54.56,0,0,0,6.93,2,43.64,43.64,0,0,1,4.54,1.2,21.55,21.55,0,0,1,4.74,2.19,11.33,11.33,0,0,1,3.75,3.76A10.88,10.88,0,0,1,92,106.59a11.17,11.17,0,0,1-4.32,9.12Q83.35,119.21,76.36,119.2Z"/><path class="cls-1" d="M112.85,119.2a16.56,16.56,0,0,1-8.28-2.08,14.92,14.92,0,0,1-5.79-5.79A16.6,16.6,0,0,1,96.69,103a15.56,15.56,0,0,1,2.09-8,14.85,14.85,0,0,1,5.79-5.57,16.85,16.85,0,0,1,8.28-2,16.59,16.59,0,0,1,8.24,2A15.2,15.2,0,0,1,129,103a16.33,16.33,0,0,1-2.14,8.29,15.47,15.47,0,0,1-5.79,5.79A16.3,16.3,0,0,1,112.85,119.2Zm0-6.46a8.59,8.59,0,0,0,6.57-2.66,9.85,9.85,0,0,0,2.51-7,9,9,0,0,0-2.51-6.67,9.95,9.95,0,0,0-13.19,0,9.14,9.14,0,0,0-2.45,6.67,10,10,0,0,0,2.45,7A8.58,8.58,0,0,0,112.85,112.74Z"/><path class="cls-1" d="M161.44,119.2a4,4,0,0,1-2.45-.83,2.85,2.85,0,0,1-1.1-2.4V102.83c0-3.06-.67-5.31-2-6.77a7,7,0,0,0-5.37-2.19q-4.28,0-6.2,2.76a10.38,10.38,0,0,0-1.93,6.1V116a2.85,2.85,0,0,1-1.1,2.4,3.93,3.93,0,0,1-2.44.83,4,4,0,0,1-2.46-.83,2.87,2.87,0,0,1-1.09-2.4V91.47a3.25,3.25,0,0,1,1.09-2.66,3.82,3.82,0,0,1,2.46-.89,3.77,3.77,0,0,1,2.44.89,3.22,3.22,0,0,1,1.1,2.66A13.61,13.61,0,0,1,147,88.55a14,14,0,0,1,5.31-1.15,11.93,11.93,0,0,1,9.28,3.76q3.45,3.75,3.44,11V116a2.8,2.8,0,0,1-1.14,2.4A4.08,4.08,0,0,1,161.44,119.2Z"/><path class="cls-1" d="M176.56,81.67a4.82,4.82,0,0,1-3.39-1.31,4.14,4.14,0,0,1-1.41-3.18,4.05,4.05,0,0,1,1.41-3.07,4.81,4.81,0,0,1,3.39-1.3,4.5,4.5,0,0,1,3.23,1.3,4.13,4.13,0,0,1,1.35,3.07,4.22,4.22,0,0,1-1.35,3.18A4.51,4.51,0,0,1,176.56,81.67Zm-.11,37.53a4,4,0,0,1-2.45-.83,2.84,2.84,0,0,1-1.09-2.4V91A3.22,3.22,0,0,1,174,88.29a3.82,3.82,0,0,1,4.9,0A3.22,3.22,0,0,1,180,91v25a2.85,2.85,0,0,1-1.1,2.4A4,4,0,0,1,176.45,119.2Z"/><path class="cls-1" d="M195.53,102.73V116a2.84,2.84,0,0,1-1.09,2.4,4,4,0,0,1-4.9,0,2.85,2.85,0,0,1-1.1-2.4V91.47a3.22,3.22,0,0,1,1.1-2.66,3.82,3.82,0,0,1,4.9,0,3.22,3.22,0,0,1,1.09,2.66v.41a11.27,11.27,0,0,1,3.81-3.23,10.39,10.39,0,0,1,4.95-1.25,10.69,10.69,0,0,1,2.5.31A3,3,0,0,1,208.67,89a3.63,3.63,0,0,1,.62,2.08,3.78,3.78,0,0,1-.88,2.45,3.11,3.11,0,0,1-2.56,1.1,5.84,5.84,0,0,1-1.51-.21,7.53,7.53,0,0,0-1.93-.21,6.18,6.18,0,0,0-4.95,2.29A9.41,9.41,0,0,0,195.53,102.73Z"/><path class="cls-1" d="M210.86,91A3.21,3.21,0,0,1,212,88.34a3.86,3.86,0,0,1,2.51-.94,3.2,3.2,0,0,1,3.12,2.19l8.14,19.92a1.23,1.23,0,0,0,2.29.1l7-19.91a3.17,3.17,0,0,1,3.23-2.3,4.2,4.2,0,0,1,2.66.94,2.85,2.85,0,0,1,1.2,2.29,5,5,0,0,1-.32,1.46L225.87,131a3.18,3.18,0,0,1-3.23,2.3,4.11,4.11,0,0,1-2.56-.94,2.82,2.82,0,0,1-1.19-2.3,2.47,2.47,0,0,1,.31-1.45l5.11-10.43a3.42,3.42,0,0,1-3-2.09L211.07,92.2A5.68,5.68,0,0,1,210.86,91Z"/><path class="cls-1" d="M276.39,76.38c-.58,10.75-5.35,18.6-14.91,23.4a3.53,3.53,0,0,1-.67.28,1.35,1.35,0,0,1-1.62-.7,1.34,1.34,0,0,1,.46-1.71,7.31,7.31,0,0,1,.79-.4A22.92,22.92,0,0,0,254.89,54a22.42,22.42,0,0,0-11.95,1l-.3.11c-1,.34-1.7.07-2-.73a1.34,1.34,0,0,1,1.08-1.82,38.69,38.69,0,0,1,5.83-1.42,25.5,25.5,0,0,1,28.26,20.56C276.14,73.27,276.21,74.91,276.39,76.38Z"/><path class="cls-1" d="M271.51,76.51c-.34,8.13-3.89,14.3-11,18.34a2.61,2.61,0,0,1-.89.34,1.25,1.25,0,0,1-1.4-.82,1.22,1.22,0,0,1,.37-1.52,5,5,0,0,1,.89-.54,18.06,18.06,0,0,0-6-33.63,17.64,17.64,0,0,0-14.34,4c-.17.13-.32.28-.49.42a1.36,1.36,0,1,1-1.79-2,20.16,20.16,0,0,1,9.55-4.88,20.76,20.76,0,0,1,24.81,17C271.38,74.32,271.41,75.43,271.51,76.51Z"/><path class="cls-1" d="M266.61,77.61A15.47,15.47,0,0,1,259.17,90a2.14,2.14,0,0,1-1.55.28,1.29,1.29,0,0,1-.4-2.21,5.23,5.23,0,0,1,.73-.5,13.22,13.22,0,0,0-7.76-24.25A12.88,12.88,0,0,0,240,68.79c-.16.21-.3.45-.47.65a1.31,1.31,0,0,1-1.79.33,1.29,1.29,0,0,1-.43-1.83,19.11,19.11,0,0,1,1.92-2.46,15.83,15.83,0,0,1,17.38-3.76C262.67,64.16,266.61,70,266.61,77.61Z"/><path class="cls-1" d="M261.78,76.56a11,11,0,0,1-1.65,5.79c-.53.88-1.3,1.13-2,.69s-.83-1.22-.32-2.1a8.32,8.32,0,0,0-6.35-12.73,8,8,0,0,0-8,4.11c-.13.2-.23.43-.36.63a1.35,1.35,0,0,1-1.75.54,1.37,1.37,0,0,1-.65-1.78,6,6,0,0,1,.37-.71,11.08,11.08,0,0,1,20.69,5.56Z"/><path class="cls-1" d="M281.1,74.54c0,1.1-.46,1.75-1.32,1.78s-1.35-.57-1.44-1.58c-.81-9.68-5.4-17-13.63-22.15-1.16-.72-1.51-1.44-1-2.23s1.26-.82,2.4-.12C275.17,55.82,280.08,64,281.1,74.54Z"/><path class="cls-1" d="M274,95.69a6.39,6.39,0,0,1-.61,1.12,30.3,30.3,0,0,1-10.79,7.78,1.37,1.37,0,0,1-1.88-.71,1.33,1.33,0,0,1,.77-1.78,28.46,28.46,0,0,0,9.95-7.18,1.19,1.19,0,0,1,1.52-.34A5,5,0,0,1,274,95.69Z"/><path class="cls-1" d="M256.94,76c0,1.2-.51,1.84-1.31,1.87a1.38,1.38,0,0,1-1.41-1.43,3.54,3.54,0,0,0-5.81-2.62,1.37,1.37,0,1,1-1.67-2.14A6.27,6.27,0,0,1,256.94,76Z"/><path class="cls-1" d="M285.45,70.18c-.06,1-.39,1.48-1.08,1.64a1.24,1.24,0,0,1-1.54-.83,39.9,39.9,0,0,1-.91-3.89,1.2,1.2,0,0,1,1-1.39,1.16,1.16,0,0,1,1.54.67C284.87,67.72,285.17,69.1,285.45,70.18Z"/><text class="cls-2" transform="translate(60.2 133.15)">audiobranding consulting </text></svg>